<mxfile host="app.diagrams.net" modified="2023-09-24T05:35:21.339Z" agent="5.0 (Windows NT 10.0; Win64; x64) AppleWebKit/537.36 (KHTML, like Gecko) Chrome/116.0.0.0 Safari/537.36" etag="dVxhifd0dUTjVWNYUNXt" version="16.6.3" type="github">
  <diagram id="WIMJrDrFxpsoOqIQ3qlG" name="Page-1">
    <mxGraphModel dx="1632" dy="430" grid="1" gridSize="10" guides="1" tooltips="1" connect="1" arrows="1" fold="1" page="1" pageScale="1" pageWidth="850" pageHeight="1100" math="0" shadow="0">
      <root>
        <mxCell id="0" />
        <mxCell id="1" parent="0" />
        <mxCell id="OVmPkxUv8W8gdNfMY1qq-1" value="" style="rounded=0;whiteSpace=wrap;html=1;" vertex="1" parent="1">
          <mxGeometry x="670" y="210" width="120" height="60" as="geometry" />
        </mxCell>
        <mxCell id="OVmPkxUv8W8gdNfMY1qq-2" value="" style="rounded=0;whiteSpace=wrap;html=1;" vertex="1" parent="1">
          <mxGeometry x="470" y="310" width="120" height="60" as="geometry" />
        </mxCell>
        <mxCell id="OVmPkxUv8W8gdNfMY1qq-3" value="" style="rounded=0;whiteSpace=wrap;html=1;" vertex="1" parent="1">
          <mxGeometry x="120" y="310" width="120" height="60" as="geometry" />
        </mxCell>
        <mxCell id="OVmPkxUv8W8gdNfMY1qq-4" value="" style="rounded=0;whiteSpace=wrap;html=1;" vertex="1" parent="1">
          <mxGeometry x="470" y="110" width="120" height="60" as="geometry" />
        </mxCell>
        <mxCell id="OVmPkxUv8W8gdNfMY1qq-5" value="" style="rounded=0;whiteSpace=wrap;html=1;" vertex="1" parent="1">
          <mxGeometry x="120" y="110" width="120" height="60" as="geometry" />
        </mxCell>
        <mxCell id="OVmPkxUv8W8gdNfMY1qq-6" value="" style="endArrow=classic;html=1;rounded=0;entryX=0;entryY=0.5;entryDx=0;entryDy=0;" edge="1" parent="1" target="OVmPkxUv8W8gdNfMY1qq-1">
          <mxGeometry width="50" height="50" relative="1" as="geometry">
            <mxPoint x="40" y="240" as="sourcePoint" />
            <mxPoint x="510" y="190" as="targetPoint" />
          </mxGeometry>
        </mxCell>
        <mxCell id="OVmPkxUv8W8gdNfMY1qq-11" value="" style="endArrow=classic;html=1;rounded=0;" edge="1" parent="1">
          <mxGeometry width="50" height="50" relative="1" as="geometry">
            <mxPoint x="530" y="170" as="sourcePoint" />
            <mxPoint x="570" y="230" as="targetPoint" />
          </mxGeometry>
        </mxCell>
        <mxCell id="OVmPkxUv8W8gdNfMY1qq-12" value="" style="endArrow=classic;html=1;rounded=0;exitX=0.5;exitY=0;exitDx=0;exitDy=0;" edge="1" parent="1" source="OVmPkxUv8W8gdNfMY1qq-2">
          <mxGeometry width="50" height="50" relative="1" as="geometry">
            <mxPoint x="540" y="180" as="sourcePoint" />
            <mxPoint x="570" y="250" as="targetPoint" />
          </mxGeometry>
        </mxCell>
        <mxCell id="OVmPkxUv8W8gdNfMY1qq-13" value="" style="endArrow=classic;html=1;rounded=0;" edge="1" parent="1">
          <mxGeometry width="50" height="50" relative="1" as="geometry">
            <mxPoint x="170" y="310" as="sourcePoint" />
            <mxPoint x="210" y="250" as="targetPoint" />
          </mxGeometry>
        </mxCell>
        <mxCell id="OVmPkxUv8W8gdNfMY1qq-14" value="" style="endArrow=classic;html=1;rounded=0;" edge="1" parent="1">
          <mxGeometry width="50" height="50" relative="1" as="geometry">
            <mxPoint x="180" y="170" as="sourcePoint" />
            <mxPoint x="210" y="230" as="targetPoint" />
          </mxGeometry>
        </mxCell>
        <mxCell id="OVmPkxUv8W8gdNfMY1qq-15" value="People" style="text;html=1;strokeColor=none;fillColor=none;align=center;verticalAlign=middle;whiteSpace=wrap;rounded=0;" vertex="1" parent="1">
          <mxGeometry x="150" y="125" width="60" height="30" as="geometry" />
        </mxCell>
        <mxCell id="OVmPkxUv8W8gdNfMY1qq-16" value="Fears" style="text;html=1;strokeColor=none;fillColor=none;align=center;verticalAlign=middle;whiteSpace=wrap;rounded=0;" vertex="1" parent="1">
          <mxGeometry x="500" y="325" width="60" height="30" as="geometry" />
        </mxCell>
        <mxCell id="OVmPkxUv8W8gdNfMY1qq-17" value="Work" style="text;html=1;strokeColor=none;fillColor=none;align=center;verticalAlign=middle;whiteSpace=wrap;rounded=0;" vertex="1" parent="1">
          <mxGeometry x="150" y="325" width="60" height="30" as="geometry" />
        </mxCell>
        <mxCell id="OVmPkxUv8W8gdNfMY1qq-18" value="Mental Health" style="text;html=1;strokeColor=none;fillColor=none;align=center;verticalAlign=middle;whiteSpace=wrap;rounded=0;" vertex="1" parent="1">
          <mxGeometry x="500" y="125" width="60" height="30" as="geometry" />
        </mxCell>
        <mxCell id="OVmPkxUv8W8gdNfMY1qq-19" value="Poor performance on exam" style="text;html=1;strokeColor=none;fillColor=none;align=center;verticalAlign=middle;whiteSpace=wrap;rounded=0;" vertex="1" parent="1">
          <mxGeometry x="700" y="225" width="60" height="30" as="geometry" />
        </mxCell>
        <mxCell id="OVmPkxUv8W8gdNfMY1qq-20" value="" style="endArrow=classic;html=1;rounded=0;startArrow=none;" edge="1" parent="1" source="OVmPkxUv8W8gdNfMY1qq-23">
          <mxGeometry width="50" height="50" relative="1" as="geometry">
            <mxPoint x="140" y="200" as="sourcePoint" />
            <mxPoint x="200" y="200" as="targetPoint" />
          </mxGeometry>
        </mxCell>
        <mxCell id="OVmPkxUv8W8gdNfMY1qq-23" value="Family Drama that week" style="text;html=1;strokeColor=none;fillColor=none;align=center;verticalAlign=middle;whiteSpace=wrap;rounded=0;" vertex="1" parent="1">
          <mxGeometry x="-20" y="180" width="170" height="30" as="geometry" />
        </mxCell>
        <mxCell id="OVmPkxUv8W8gdNfMY1qq-24" value="" style="endArrow=none;html=1;rounded=0;" edge="1" parent="1" target="OVmPkxUv8W8gdNfMY1qq-23">
          <mxGeometry width="50" height="50" relative="1" as="geometry">
            <mxPoint x="140" y="200" as="sourcePoint" />
            <mxPoint x="200" y="200" as="targetPoint" />
          </mxGeometry>
        </mxCell>
        <mxCell id="OVmPkxUv8W8gdNfMY1qq-25" value="Professor setting expectations for the first exam" style="text;html=1;strokeColor=none;fillColor=none;align=center;verticalAlign=middle;whiteSpace=wrap;rounded=0;" vertex="1" parent="1">
          <mxGeometry x="210" y="180" width="170" height="30" as="geometry" />
        </mxCell>
        <mxCell id="OVmPkxUv8W8gdNfMY1qq-26" value="Other midterm that week" style="text;html=1;strokeColor=none;fillColor=none;align=center;verticalAlign=middle;whiteSpace=wrap;rounded=0;" vertex="1" parent="1">
          <mxGeometry x="-10" y="270" width="170" height="30" as="geometry" />
        </mxCell>
        <mxCell id="OVmPkxUv8W8gdNfMY1qq-27" value="Extracurricular deadlines were approaching" style="text;html=1;strokeColor=none;fillColor=none;align=center;verticalAlign=middle;whiteSpace=wrap;rounded=0;" vertex="1" parent="1">
          <mxGeometry x="220" y="270" width="170" height="30" as="geometry" />
        </mxCell>
        <mxCell id="OVmPkxUv8W8gdNfMY1qq-28" value="Insomnia from stress" style="text;html=1;strokeColor=none;fillColor=none;align=center;verticalAlign=middle;whiteSpace=wrap;rounded=0;" vertex="1" parent="1">
          <mxGeometry x="370" y="200" width="170" height="30" as="geometry" />
        </mxCell>
        <mxCell id="OVmPkxUv8W8gdNfMY1qq-29" value="Exhaustion after finishing another exam" style="text;html=1;strokeColor=none;fillColor=none;align=center;verticalAlign=middle;whiteSpace=wrap;rounded=0;" vertex="1" parent="1">
          <mxGeometry x="570" y="180" width="170" height="30" as="geometry" />
        </mxCell>
        <mxCell id="OVmPkxUv8W8gdNfMY1qq-30" value="Disappointing my friends and family" style="text;html=1;strokeColor=none;fillColor=none;align=center;verticalAlign=middle;whiteSpace=wrap;rounded=0;" vertex="1" parent="1">
          <mxGeometry x="380" y="250" width="170" height="30" as="geometry" />
        </mxCell>
        <mxCell id="OVmPkxUv8W8gdNfMY1qq-31" value="Lowering my GPA" style="text;html=1;strokeColor=none;fillColor=none;align=center;verticalAlign=middle;whiteSpace=wrap;rounded=0;" vertex="1" parent="1">
          <mxGeometry x="550" y="270" width="170" height="30" as="geometry" />
        </mxCell>
        <mxCell id="OVmPkxUv8W8gdNfMY1qq-32" value="" style="endArrow=classic;html=1;rounded=0;entryX=1;entryY=0.5;entryDx=0;entryDy=0;" edge="1" parent="1" target="OVmPkxUv8W8gdNfMY1qq-28">
          <mxGeometry width="50" height="50" relative="1" as="geometry">
            <mxPoint x="520" y="215" as="sourcePoint" />
            <mxPoint x="510" y="150" as="targetPoint" />
          </mxGeometry>
        </mxCell>
        <mxCell id="OVmPkxUv8W8gdNfMY1qq-34" value="" style="endArrow=classic;html=1;rounded=0;exitX=0.163;exitY=1.057;exitDx=0;exitDy=0;exitPerimeter=0;entryX=0;entryY=1;entryDx=0;entryDy=0;" edge="1" parent="1" source="OVmPkxUv8W8gdNfMY1qq-29" target="OVmPkxUv8W8gdNfMY1qq-29">
          <mxGeometry width="50" height="50" relative="1" as="geometry">
            <mxPoint x="460" y="200" as="sourcePoint" />
            <mxPoint x="510" y="150" as="targetPoint" />
          </mxGeometry>
        </mxCell>
        <mxCell id="OVmPkxUv8W8gdNfMY1qq-35" value="" style="endArrow=classic;html=1;rounded=0;exitX=0.152;exitY=0.803;exitDx=0;exitDy=0;exitPerimeter=0;entryX=0;entryY=1;entryDx=0;entryDy=0;" edge="1" parent="1" source="OVmPkxUv8W8gdNfMY1qq-25" target="OVmPkxUv8W8gdNfMY1qq-25">
          <mxGeometry width="50" height="50" relative="1" as="geometry">
            <mxPoint x="460" y="200" as="sourcePoint" />
            <mxPoint x="510" y="150" as="targetPoint" />
          </mxGeometry>
        </mxCell>
        <mxCell id="OVmPkxUv8W8gdNfMY1qq-36" value="" style="endArrow=classic;html=1;rounded=0;exitX=0;exitY=0.5;exitDx=0;exitDy=0;" edge="1" parent="1" source="OVmPkxUv8W8gdNfMY1qq-27">
          <mxGeometry width="50" height="50" relative="1" as="geometry">
            <mxPoint x="460" y="200" as="sourcePoint" />
            <mxPoint x="190" y="290" as="targetPoint" />
          </mxGeometry>
        </mxCell>
        <mxCell id="OVmPkxUv8W8gdNfMY1qq-38" value="" style="endArrow=classic;html=1;rounded=0;" edge="1" parent="1" source="OVmPkxUv8W8gdNfMY1qq-26">
          <mxGeometry width="50" height="50" relative="1" as="geometry">
            <mxPoint x="460" y="200" as="sourcePoint" />
            <mxPoint x="190" y="285" as="targetPoint" />
          </mxGeometry>
        </mxCell>
        <mxCell id="OVmPkxUv8W8gdNfMY1qq-39" value="" style="endArrow=classic;html=1;rounded=0;exitX=0.655;exitY=0.978;exitDx=0;exitDy=0;entryX=0;entryY=0.25;entryDx=0;entryDy=0;exitPerimeter=0;" edge="1" parent="1" source="OVmPkxUv8W8gdNfMY1qq-30" target="OVmPkxUv8W8gdNfMY1qq-31">
          <mxGeometry width="50" height="50" relative="1" as="geometry">
            <mxPoint x="460" y="200" as="sourcePoint" />
            <mxPoint x="510" y="150" as="targetPoint" />
          </mxGeometry>
        </mxCell>
        <mxCell id="OVmPkxUv8W8gdNfMY1qq-40" value="" style="endArrow=classic;html=1;rounded=0;exitX=0.25;exitY=0;exitDx=0;exitDy=0;entryX=0.062;entryY=-0.133;entryDx=0;entryDy=0;entryPerimeter=0;" edge="1" parent="1" source="OVmPkxUv8W8gdNfMY1qq-31" target="OVmPkxUv8W8gdNfMY1qq-31">
          <mxGeometry width="50" height="50" relative="1" as="geometry">
            <mxPoint x="460" y="200" as="sourcePoint" />
            <mxPoint x="510" y="150" as="targetPoint" />
          </mxGeometry>
        </mxCell>
        <mxCell id="OVmPkxUv8W8gdNfMY1qq-42" value="&lt;b&gt;&lt;font style=&quot;font-size: 16px&quot;&gt;Factory Fishbone Diagram for a Midterm Exam Experience from Last Semester&lt;/font&gt;&lt;/b&gt;" style="text;html=1;strokeColor=none;fillColor=none;align=center;verticalAlign=middle;whiteSpace=wrap;rounded=0;" vertex="1" parent="1">
          <mxGeometry x="270" y="60" width="230" height="30" as="geometry" />
        </mxCell>
        <mxCell id="OVmPkxUv8W8gdNfMY1qq-43" value="&lt;div style=&quot;text-align: left&quot;&gt;&lt;span&gt;Noor EL-Hawwat&lt;/span&gt;&lt;/div&gt;&lt;div style=&quot;text-align: left&quot;&gt;&lt;span&gt;Dr. Kahanda&lt;/span&gt;&lt;/div&gt;&lt;div style=&quot;text-align: left&quot;&gt;&lt;span&gt;Software Engineering&lt;/span&gt;&lt;/div&gt;&lt;div style=&quot;text-align: left&quot;&gt;&lt;span&gt;Project 2&lt;/span&gt;&lt;/div&gt;" style="text;html=1;strokeColor=none;fillColor=none;align=center;verticalAlign=middle;whiteSpace=wrap;rounded=0;" vertex="1" parent="1">
          <mxGeometry x="26" y="49" width="100" height="80" as="geometry" />
        </mxCell>
        <mxCell id="OVmPkxUv8W8gdNfMY1qq-44" value="9/26/2023" style="text;html=1;strokeColor=none;fillColor=none;align=center;verticalAlign=middle;whiteSpace=wrap;rounded=0;" vertex="1" parent="1">
          <mxGeometry x="660" y="60" width="100" height="30" as="geometry" />
        </mxCell>
        <mxCell id="OVmPkxUv8W8gdNfMY1qq-45" value="" style="endArrow=classic;html=1;rounded=0;fontSize=16;entryX=0.839;entryY=1.089;entryDx=0;entryDy=0;entryPerimeter=0;" edge="1" parent="1" target="OVmPkxUv8W8gdNfMY1qq-30">
          <mxGeometry width="50" height="50" relative="1" as="geometry">
            <mxPoint x="420" y="330" as="sourcePoint" />
            <mxPoint x="470" y="280" as="targetPoint" />
          </mxGeometry>
        </mxCell>
        <mxCell id="OVmPkxUv8W8gdNfMY1qq-46" value="Needed to stop thinking about others" style="text;html=1;strokeColor=none;fillColor=none;align=center;verticalAlign=middle;whiteSpace=wrap;rounded=0;" vertex="1" parent="1">
          <mxGeometry x="300" y="330" width="170" height="30" as="geometry" />
        </mxCell>
        <mxCell id="OVmPkxUv8W8gdNfMY1qq-47" value="" style="endArrow=classic;html=1;rounded=0;fontSize=16;" edge="1" parent="1">
          <mxGeometry width="50" height="50" relative="1" as="geometry">
            <mxPoint x="70" y="350" as="sourcePoint" />
            <mxPoint x="170" y="290" as="targetPoint" />
          </mxGeometry>
        </mxCell>
        <mxCell id="OVmPkxUv8W8gdNfMY1qq-48" value="Both exams had huge weights on the grade" style="text;html=1;strokeColor=none;fillColor=none;align=center;verticalAlign=middle;whiteSpace=wrap;rounded=0;" vertex="1" parent="1">
          <mxGeometry x="10" y="355" width="100" height="30" as="geometry" />
        </mxCell>
      </root>
    </mxGraphModel>
  </diagram>
</mxfile>
